<svg xmlns="http://www.w3.org/2000/svg" width="91.246" height="91.449" viewBox="0 0 91.246 91.449"><defs><style>.a{fill:#ebebeb;}</style></defs><g transform="translate(-731.206 -1472.08)"><g transform="translate(785.558 1472.083)"><path class="a" d="M-6.585,36.887a2.281,2.281,0,0,1-2.281-2.281V7.363a2.621,2.621,0,0,0-2.62-2.62H-38.574a2.465,2.465,0,0,1-2.459-2.463A2.286,2.286,0,0,1-38.749,0h30.24A4.367,4.367,0,0,1-4.143,4.366V34.753a2.136,2.136,0,0,1-2.134,2.134Z" transform="translate(41.033)"/></g><g transform="translate(731.206 1472.08)"><path class="a" d="M-7.052-38.592a2.282,2.282,0,0,1-2.281,2.284H-36.578a2.62,2.62,0,0,0-2.62,2.617V-6.6a2.463,2.463,0,0,1-2.459,2.459,2.287,2.287,0,0,1-2.284-2.284v-30.24a4.37,4.37,0,0,1,4.369-4.366H-9.185A2.139,2.139,0,0,1-7.052-38.9Z" transform="translate(43.942 41.033)"/></g><g transform="translate(731.206 1526.642)"><path class="a" d="M-.467-43.938a2.281,2.281,0,0,1,2.281,2.281v27.246a2.62,2.62,0,0,0,2.62,2.617H31.523a2.465,2.465,0,0,1,2.459,2.463A2.286,2.286,0,0,1,31.7-7.051H1.461a4.367,4.367,0,0,1-4.369-4.366V-41.8A2.139,2.139,0,0,1-.771-43.938Z" transform="translate(2.908 43.938)"/></g><g transform="translate(785.562 1526.642)"><path class="a" d="M0,31.537a2.286,2.286,0,0,1,2.281-2.284H29.527a2.62,2.62,0,0,0,2.62-2.617V-.449a2.463,2.463,0,0,1,2.459-2.459A2.284,2.284,0,0,1,36.89-.628v30.24a4.369,4.369,0,0,1-4.366,4.366H2.134A2.139,2.139,0,0,1,0,31.841Z" transform="translate(0 2.908)"/></g></g></svg>