<svg xmlns="http://www.w3.org/2000/svg" xmlns:xlink="http://www.w3.org/1999/xlink" width="310.246" height="310.45" viewBox="0 0 310.246 310.45"><defs><style>.a{fill:rgba(96,172,237,0.16);}.b{filter:url(#a);}</style><filter id="a" x="0" y="0" width="310.246" height="310.45" filterUnits="userSpaceOnUse"><feOffset dy="3" input="SourceAlpha"/><feGaussianBlur stdDeviation="2.5" result="b"/><feFlood flood-opacity="0.141"/><feComposite operator="in" in2="b"/><feComposite in="SourceGraphic"/></filter></defs><g class="b" transform="matrix(1, 0, 0, 1, 0, 0)"><path class="a" d="M-6059.217-1167.551a6.917,6.917,0,0,1-6.905-6.908v-.982a7.391,7.391,0,0,1,7.38-7.379h88.16a8.469,8.469,0,0,0,8.479-8.452v-87.506a7.96,7.96,0,0,1,7.959-7.946,7.386,7.386,0,0,1,7.392,7.369v97.7a14.132,14.132,0,0,1-14.128,14.105Zm-168.646,0A14.118,14.118,0,0,1-6242-1181.656v-98.174a6.914,6.914,0,0,1,6.913-6.893h.988a7.373,7.373,0,0,1,7.375,7.369v88.027a8.474,8.474,0,0,0,8.48,8.452h87.649a7.975,7.975,0,0,1,7.959,7.956,7.391,7.391,0,0,1-7.39,7.369Zm273.2-176.267a7.376,7.376,0,0,1-7.38-7.369V-1439.2a8.473,8.473,0,0,0-8.48-8.462h-87.651a7.969,7.969,0,0,1-7.951-7.956,7.389,7.389,0,0,1,7.388-7.369h97.852a14.12,14.12,0,0,1,14.126,14.1v98.175a6.905,6.905,0,0,1-6.905,6.893ZM-6242-1351.2v-97.7A14.128,14.128,0,0,1-6227.863-1463h98.326a6.915,6.915,0,0,1,6.9,6.9v.987a7.378,7.378,0,0,1-7.38,7.379h-88.163a8.47,8.47,0,0,0-8.476,8.452v87.516a7.962,7.962,0,0,1-7.959,7.945A7.391,7.391,0,0,1-6242-1351.2Z" transform="translate(6249.5 1467.5)"/></g></svg>