<svg xmlns="http://www.w3.org/2000/svg" width="99.7" height="95.923" viewBox="0 0 99.7 95.923"><defs><style>.a{fill:#ebebeb;}</style></defs><g transform="translate(-650.815 -2965.248)"><g transform="translate(715.51 2965.248)"><path class="a" d="M-8.655,35.005A2.246,2.246,0,0,1-10.9,32.761V6.97a2.487,2.487,0,0,0-2.488-2.485H-39.159A2.243,2.243,0,0,1-41.4,2.244,2.246,2.246,0,0,1-39.159,0h28.622A4.144,4.144,0,0,1-6.395,4.146V32.761a2.247,2.247,0,0,1-2.244,2.244Z" transform="translate(41.4)"/></g><g transform="translate(650.815 3026.166)"><path class="a" d="M-8.656,35.005A2.244,2.244,0,0,1-10.9,32.764V6.97a2.487,2.487,0,0,0-2.485-2.485H-39.163A2.243,2.243,0,0,1-41.4,2.244,2.246,2.246,0,0,1-39.163,0h28.622A4.144,4.144,0,0,1-6.4,4.146V32.764A2.243,2.243,0,0,1-8.64,35.005Z" transform="translate(41.404)"/></g><g transform="translate(680.508 2996.476)"><path class="a" d="M-8.64,35.005A2.167,2.167,0,0,1-10.8,32.84V6.987A2.485,2.485,0,0,0-13.29,4.5h-25.7a2.333,2.333,0,0,1-2.333-2.33A2.167,2.167,0,0,1-39.16,0h28.694A4.144,4.144,0,0,1-6.32,4.143V32.979a2.03,2.03,0,0,1-2.027,2.027Z" transform="translate(41.325)"/></g></g></svg>