<svg xmlns="http://www.w3.org/2000/svg" width="89.996" height="89.992" viewBox="0 0 89.996 89.992"><defs><style>.a{fill:#ebebeb;}</style></defs><g transform="translate(-954.815 -2393.628)"><g transform="translate(1008.674 2393.628)"><path class="a" d="M-.2,18.227a2.481,2.481,0,0,1-1.4-3.22L3.754,1.377A2.483,2.483,0,0,1,8.377,3.194L3.022,16.825a2.481,2.481,0,0,1-3.22,1.4" transform="translate(1.775 0.197)"/></g><g transform="translate(1025.775 2417.889)"><path class="a" d="M-.026,7.647A2.481,2.481,0,0,1,1.258,4.379L14.685-1.472A2.477,2.477,0,0,1,17.95-.188,2.478,2.478,0,0,1,16.669,3.08L3.242,8.931A2.481,2.481,0,0,1-.026,7.647" transform="translate(0.234 1.679)"/></g><g transform="translate(1026.213 2447.485)"><path class="a" d="M-.022-8.269a2.481,2.481,0,0,1,3.22-1.4L16.829-4.317a2.486,2.486,0,0,1,1.4,3.216A2.483,2.483,0,0,1,15.012.306L1.381-5.049a2.482,2.482,0,0,1-1.4-3.22" transform="translate(0.195 9.845)"/></g><g transform="translate(1009.728 2464.587)"><path class="a" d="M-.188-20.268A2.481,2.481,0,0,1,3.08-18.984L8.931-5.556A2.484,2.484,0,0,1,7.647-2.288,2.483,2.483,0,0,1,4.379-3.573L-1.472-17A2.481,2.481,0,0,1-.188-20.268" transform="translate(1.679 20.475)"/></g><g transform="translate(980.628 2465.022)"><path class="a" d="M-1.1-20.572a2.481,2.481,0,0,1,1.406,3.22L-5.049-3.721a2.487,2.487,0,0,1-3.22,1.4,2.482,2.482,0,0,1-1.4-3.22l5.355-13.631a2.481,2.481,0,0,1,3.216-1.4" transform="translate(9.845 20.744)"/></g><g transform="translate(955.458 2448.54)"><path class="a" d="M-2.288-9.009A2.486,2.486,0,0,1-3.573-5.741L-17,.111a2.477,2.477,0,0,1-3.264-1.284,2.477,2.477,0,0,1,1.281-3.268l13.427-5.851A2.483,2.483,0,0,1-2.288-9.009" transform="translate(20.474 10.5)"/></g><g transform="translate(954.815 2419.439)"><path class="a" d="M-2.318,6.97a2.482,2.482,0,0,1-3.22,1.4L-19.169,3.018A2.484,2.484,0,0,1-20.572-.2a2.481,2.481,0,0,1,3.22-1.4L-3.721,3.751a2.482,2.482,0,0,1,1.4,3.22" transform="translate(20.743 1.775)"/></g><g transform="translate(979.079 2394.267)"><path class="a" d="M-1.174,17.953a2.487,2.487,0,0,1-3.272-1.284L-10.3,3.242A2.483,2.483,0,0,1-9.009-.022,2.482,2.482,0,0,1-5.741,1.258L.11,14.686a2.481,2.481,0,0,1-1.284,3.268" transform="translate(10.502 0.231)"/></g></g></svg>