<svg xmlns="http://www.w3.org/2000/svg" width="240" height="144" viewBox="0 0 240 144"><defs><style>.a{fill:#1175c9;opacity:0;}.b{fill:#006397;}.c{fill:#18a4de;}</style></defs><g transform="translate(-548 -803)"><rect class="a" width="240" height="144" transform="translate(548 803)"/><g transform="translate(551.645 781.064)"><path class="b" d="M66.768,88.874V96.4H57.932V88.874H54.355v16.935h3.577v-7.9h8.835l0,6.077a1.761,1.761,0,0,0,.228.938,1.694,1.694,0,0,0,.57.555,2.241,2.241,0,0,0,.726.263,4.17,4.17,0,0,0,.688.065h1.371V88.874" transform="translate(0 -3.399)"/><path class="b" d="M143.734,105.811V88.874h-3.5l-7,12.544-7.14-12.544h-3.541v16.937h1.824V92.677l7.517,13.134h.933l7.319-13.032v11.207a1.75,1.75,0,0,0,.235.941,1.687,1.687,0,0,0,.568.552,2.081,2.081,0,0,0,.727.263,4.123,4.123,0,0,0,.689.069" transform="translate(-7.038 -3.399)"/><path class="b" d="M168.987,105.766l-8.944-17.309h-1.048l-9.162,17.311h2.091l2.846-5.385h6.5l-.9-1.728h-4.685l3.011-5.691,5.907,11.457a2.162,2.162,0,0,0,2.2,1.345" transform="translate(-9.854 -3.356)"/><path class="b" d="M190.181,88.874a2.222,2.222,0,0,0-.33.026,1.187,1.187,0,0,0-.361.134.845.845,0,0,0-.293.286.888.888,0,0,0-.122.482v10.917L177.166,88.874h-2.3v16.935h2.087V93.041l12.084,12.348a2.544,2.544,0,0,0,1.837.42h.249V88.874" transform="translate(-12.438 -3.399)"/><path class="c" d="M92.393,78.682s4.169-2.342,7.289-3.653a100.614,100.614,0,0,1,20.707-6.3c5.037-.943,20.4-3.3,32.581.469a20.253,20.253,0,0,1-2.142,9.481h5a27.538,27.538,0,0,0,2.451-7.3,21.947,21.947,0,0,1,5.126,3.728,22.907,22.907,0,0,1,2.741,3.568h2.208a15.9,15.9,0,0,0-3.026-4.2,22.577,22.577,0,0,0-6.862-4.557c.378-4.462-1.106-8.233-4.888-10.843-9.046-6.244-27-2.658-43.539,6.11a107.8,107.8,0,0,0-19.7,13.493Zm51.29-12.256a89.672,89.672,0,0,0-23.221,1.5,103.662,103.662,0,0,0-20.919,6.408c-1.494.647-2.926,1.356-4.354,2.109A103.068,103.068,0,0,1,110.255,67.1c15.268-7.69,31.292-10.6,38.854-5.019a9.142,9.142,0,0,1,3.707,5.887A54.454,54.454,0,0,0,143.683,66.427Z" transform="translate(-3.713)"/><path class="b" d="M86.145,88.457H85.1l-9.177,17.309h2.09l6.786-12.8,2.935,5.691h-4.71l-.908,1.728h6.519l2.062,4.04a2.152,2.152,0,0,0,2.2,1.345h2.2" transform="translate(-2.226 -3.356)"/><path class="c" d="M139.325,117.864h-1.362a88.643,88.643,0,0,1-29.932,6.584,83.572,83.572,0,0,0,14.1-6.584h-4.505a75.073,75.073,0,0,1-13.839,6.165c-.482.154-.956.3-1.425.437-7.64-.284-13.7-1.986-17.908-4.6a18.82,18.82,0,0,1-2.67-2.006h-.914a18.513,18.513,0,0,0,3.306,2.664c3.715,2.37,8.874,4.053,15.3,4.688-5.9,1.35-10.707,1.247-14.237.072s-6.169-3.42-7.137-6.367c-.111-.342-.2-.7-.283-1.056h-.578a11.98,11.98,0,0,0,.346,1.341c1.065,3.28,3.984,5.8,7.758,7.144,4.485,1.605,11,1.6,19.192-.775.088-.026.176-.052.263-.08A82.409,82.409,0,0,0,139.325,117.864Z" transform="translate(-2.362 -6.391)"/><path class="b" d="M111.741,104.45l-5.276-6.383h-1.833v7.739h-3.576V88.872h6.566a11.751,11.751,0,0,1,4.485.838,3.912,3.912,0,0,1,2.525,3.676c0,1.565-.948,3.411-4.34,4.339l6.834,8.085h-2.74a4.337,4.337,0,0,1-1.247-.222A4.073,4.073,0,0,1,111.741,104.45Zm-7.118-14.091v6.417h1.655a6.358,6.358,0,0,0,2.71-.581,2.955,2.955,0,0,0-.144-5.514,4.525,4.525,0,0,0-1.835-.321" transform="translate(-4.82 -3.399)"/></g></g></svg>