<svg xmlns="http://www.w3.org/2000/svg" width="240" height="144" viewBox="0 0 240 144"><defs><style>.a{fill:#ef402f;opacity:0;}.b{fill:#e21d24;}</style></defs><g transform="translate(-1075 -803)"><rect class="a" width="240" height="144" transform="translate(1075 803)"/><g transform="translate(1103 923.542)"><path class="b" d="M53.378-45.316c-.186,1.492,1.116,1.305,1.489.375.373-.743-.374-2.607-.374-2.607A2.792,2.792,0,0,0,53.378-45.316ZM29.543-61.886c0-1.3-.745-2.794-1.677-.933s-.745,7.634-.745,7.634A10.446,10.446,0,0,0,29.543-61.886ZM66.6-53.508a1.172,1.172,0,0,0-.933,2.048,2.946,2.946,0,0,0,2.8.186S67.9-53.135,66.6-53.508Zm-47.3,0A1.183,1.183,0,0,0,18-51.646c.743.931,2.606.744,2.606.744C20.79-51.087,20.6-53.135,19.3-53.508ZM9.06-48.852a23.658,23.658,0,0,1-.745,10.616c-.931,2.6-2.048,5.025-4.1,6.514C1.8-30.232.308-32.837.868-35.816a25.435,25.435,0,0,1,3.911-9.125C-.435-48.477-.993-55.183,1.239-59.652,3.1-63.375,7.2-65.424,9.433-65.424c.185,0,.373,0,.373.185A17.614,17.614,0,0,0,8.5-56.674a31.24,31.24,0,0,0,.746,6.7c.559-.558,1.676-1.49,2.793-2.421a16.027,16.027,0,0,1,5.026-2.233,6.437,6.437,0,0,0-2.233,5.211c0,4.469,4.1,4.1,5.4,2.236a6.5,6.5,0,0,0,.558-2.793c-.186,0-2.793.373-3.91-1.3-.931-1.3,0-3.91,2.793-2.979,1.677.373,2.048,3.166,2.048,3.166.559-.187.931-.373,1.489-.559s.933-.559,1.49-.745v-5.586c.185-1.489.931-5.214,3.539-6.518,1.861-1.116,3.536.746,2.607,4.1a23.319,23.319,0,0,1-3.724,6.7v6.145s2.793-5.213,3.166-5.772c1.489-1.862,3.724-1.49,3.724.931s-.559,3.725-.559,5.772c0,.745.559.745.746.558,1.49-2.048,2.608-4.468,4.283-7.074,1.489-2.421,3.537-1.677,3.352.559v4.467c0,.373.373.186.373,0,.744-1.3,2.233-3.724,3.165-5.4,1.116-1.862,3.351-1.116,3.351,1.3,0,2.049-.187,3.354-.373,5.587,0,.558.373.558.559.186a49.469,49.469,0,0,0,4.1-6.7c.373-.559.747-1.3.931-1.3.188-.373.558-.185.558,0a9,9,0,0,0,.374.931,16.128,16.128,0,0,0,1.3,3.165c.188,0,2.42-1.678,4.1-2.42a10.158,10.158,0,0,1,4.467-1.677c-.929.373-2.42,2.978-2.42,4.841,0,4.282,3.351,4.841,5.028,3.537,1.492-1.117,1.492-3.723,1.3-4.282,0,0-2.981,1.118-4.283-1.119-.931-1.489.558-3.351,2.794-2.793,1.3.373,2.235,2.42,2.235,2.42s2.42-1.489,3.539-2.233c2.049-.931,2.792,0,2.792,1.86-.185,1.863-.372,4.656-.372,4.656s2.234-3.912,3.351-5.4c2.235-2.981,3.539-.373,3.539.931,0,1.678-.558,3.166-.374,5.958a.506.506,0,0,0,.746.373,2.081,2.081,0,0,0,.931-.743c.187-.186.745-.186.558.185a5.916,5.916,0,0,1-2.234,2.8,1.649,1.649,0,0,1-2.607-1.491c0-.56.187-5.214.375-6.33,0-.373-.375-.745-.746-.373-2.047,2.794-3.165,5.96-4.094,7.634-.559.93-2.236.93-2.236-.373,0-2.794.188-4.469.188-7.262.186-.745-.188-.93-.746-.745-1.3.931-2.234,1.49-2.234,1.49,0,.373.374,4.283-1.861,6.331a4.788,4.788,0,0,1-7.447-1.3c-1.119-2.421-.187-5.587.559-6.332a5.082,5.082,0,0,0-2.237,1.119,6.455,6.455,0,0,0-2.234,1.676c.188,0,1.678,4.1-.372,5.588-2.235,1.3-3.912,0-3.912-1.49a4.811,4.811,0,0,1,1.863-3.164c0-.186-.372-.934-.559-1.49l-.559-1.117c0,.186-3.351,5.4-3.724,6.145-1.862,2.608-3.539,1.3-3.539-.185-.185-1.862.373-4.656.186-6.145,0-.559-.186-.559-.558-.186-1.678,2.608-2.049,4.1-4.1,7.264-.559.745-2.235,1.3-2.235-.559.187-2.608.187-4.1.187-6.7,0-.185-.187-.558-.373-.185-1.862,2.233-3.166,5.772-4.656,7.263-1.675,1.677-3.165.744-2.979-.743,0-2.608,0-4.1.185-6.518,0-.559-.373-.745-.743-.186-1.678,2.608-2.05,3.724-3.726,7.635-.558,1.3-2.42.929-2.42-.746.187-2.794.187-6.518.187-6.518a5.565,5.565,0,0,1-1.49.746,8.964,8.964,0,0,1-1.3.558c0,.187.373,4.655-2.98,6.145-2.608,1.118-5.587.373-6.517-3.352a5.912,5.912,0,0,1,.373-4.1,9.841,9.841,0,0,0-1.862,1.119C10.176-49.784,9.805-49.413,9.06-48.852ZM6.452-47.363a27.014,27.014,0,0,1-.558-5.586,19.5,19.5,0,0,1,.373-7.263,26.64,26.64,0,0,1,2.048-4.469,10.425,10.425,0,0,0-5.4,6.519C2.169-56.3,2.169-49.224,5.15-45.685c.373-.375.558-.559.744-.745C6.079-46.8,6.267-46.99,6.452-47.363ZM2.728-34.7c0,1.49.931,1.678,1.675,1.306a6.074,6.074,0,0,0,2.235-3.913c.746-5.213.186-8.38,0-8.565A16.078,16.078,0,0,0,2.728-34.7Z"/><path class="b" d="M186.29-56.674c.185,2.608.744,6.518.744,6.7.559-.558,1.676-1.49,2.793-2.421a16.023,16.023,0,0,1,5.029-2.233,6.429,6.429,0,0,0-2.235,5.211c.186,4.469,4.1,4.1,5.4,2.236a6.483,6.483,0,0,0,.559-2.793c-.186,0-2.793.373-3.912-1.3-.929-1.3,0-3.91,2.794-2.979,1.678.373,2.234,3.166,2.234,3.166A8.823,8.823,0,0,1,201-51.646c.558-.187.929-.559,1.487-.745v-5.586c.189-1.489.932-5.214,3.54-6.518,1.859-1.116,3.722.746,2.607,4.1a23.236,23.236,0,0,1-3.725,6.7v6.145s2.794-5.213,3.166-5.772c1.492-1.862,3.724-1.49,3.724.931s-.559,3.725-.559,5.772c0,.745.559.745.744.558,1.49-2.048,2.608-4.468,4.283-7.074,1.49-2.421,3.537-1.677,3.351.559v4.467c0,.373.372.186.372,0,.743-1.3,2.234-3.724,3.167-5.4,1.116-1.862,3.351-1.116,3.351,1.3,0,2.049-.188,3.354-.373,5.587,0,.558.373.558.559.186a49.664,49.664,0,0,0,4.1-6.7c.372-.559.74-1.3.93-1.3.185-.373.559-.185.559,0a8.828,8.828,0,0,0,.373.931,16.321,16.321,0,0,0,1.3,3.165c.188,0,2.42-1.678,4.1-2.42a12.464,12.464,0,0,1,4.469-1.677c-.743.373-2.233,2.978-2.233,4.841-.188,4.282,3.164,4.841,4.842,3.537a4.314,4.314,0,0,0,1.3-4.282s-2.979,1.118-4.282-1.119c-.745-1.489.558-3.351,2.794-2.793,1.3.373,2.234,2.42,2.234,2.42s2.42-1.489,3.722-2.233c1.862-.931,2.61,0,2.61,1.86-.185,1.863-.373,4.656-.373,4.656s2.234-3.912,3.351-5.4c2.235-2.981,3.539-.373,3.539.931,0,1.678-.558,3.166-.374,5.958,0,.373.561.559.931.373a5.011,5.011,0,0,0,1.117-1.3c.375-.373.932-.186.745.187a8.915,8.915,0,0,1-2.8,3.353,1.65,1.65,0,0,1-2.608-1.491c0-.56.188-5.214.376-6.33,0-.373-.376-.745-.744-.373-2.047,2.794-3.168,5.96-4.1,7.634-.558.93-2.235.93-2.235-.373.189-2.794.189-4.469.373-7.262,0-.745-.373-.93-.929-.745-1.3.931-2.235,1.49-2.235,1.49,0,.373.376,4.283-1.859,6.331a4.789,4.789,0,0,1-7.447-1.3c-1.119-2.421-.188-5.587.559-6.332a5.077,5.077,0,0,0-2.235,1.119,4.553,4.553,0,0,0-2.048,1.676s1.492,4.1-.559,5.588c-2.235,1.3-3.91,0-3.91-1.49a4.821,4.821,0,0,1,1.859-3.164c0-.186-.374-.934-.558-1.49-.188-.373-.376-.744-.558-1.117,0,.186-3.17,5.4-3.728,6.145-1.859,2.608-3.539,1.3-3.539-.185-.188-1.862.375-4.656.375-6.145,0-.559-.375-.559-.743-.186-1.678,2.608-2.049,4.1-4.1,7.264-.559.745-2.235,1.3-2.235-.559.188-2.608.188-4.1.188-6.7,0-.185-.188-.558-.376-.185-1.862,2.233-3.164,5.772-4.655,7.263-1.676,1.677-3.164.744-2.979-.743,0-2.608,0-4.1.188-6.518,0-.559-.373-.745-.745-.186-1.675,2.608-2.048,3.724-3.538,7.635a1.377,1.377,0,0,1-2.607-.746c.185-2.794.185-6.518.185-6.518a5.559,5.559,0,0,1-1.488.746,9.061,9.061,0,0,1-1.305.558c0,.187.558,4.655-2.979,6.145-2.608,1.118-5.587.373-6.516-3.352a7.207,7.207,0,0,1,.372-4.1,9.838,9.838,0,0,0-1.859,1.119,13.3,13.3,0,0,0-1.677,1.49,27.124,27.124,0,0,1-.931,10.616c-.933,2.606-2.047,5.026-4.1,6.512-2.42,1.491-3.91-1.114-3.35-4.092a25.394,25.394,0,0,1,3.911-9.126c-.188-.185-1.492-2.048-3.539-2.048-2.236-.187-3.912.559-3.912.744a8.549,8.549,0,0,1-.559,2.049c0,.373-.56.744-.56,0s-.183-1.863,0-1.863c0,0-4.652.933-6.514-1.117-1.3-1.3,0-3.166,2.608-2.98a6.482,6.482,0,0,1,3.539,1.862c0-.185-.375-1.3-.559-2.233a4.813,4.813,0,0,0-.745-1.305L174-52.756a12.775,12.775,0,0,1,.933,2.42,16.145,16.145,0,0,1,.185,2.978,11.276,11.276,0,0,1,2.238-.373,11.948,11.948,0,0,1,2.607,0,10.36,10.36,0,0,1-.931-11.915c2.04-3.543,5.95-5.777,8.187-5.777.185,0,.373,0,.185.185A23.158,23.158,0,0,0,186.29-56.674Zm-12.849,9.5a6.29,6.29,0,0,0-2.793-2.236c-1.489-.372-2.233,1.3-.743,2.048A4.3,4.3,0,0,0,173.441-47.177Zm57.723,1.86c-.187,1.492,1.3,1.305,1.678.375.37-.743-.559-2.607-.559-2.607A2.79,2.79,0,0,0,231.164-45.316ZM207.33-61.886c0-1.3-.744-2.794-1.678-.933s-.743,7.634-.743,7.634A10.436,10.436,0,0,0,207.33-61.886Zm37.055,8.378a1.171,1.171,0,0,0-.93,2.048,2.945,2.945,0,0,0,2.794.186S245.689-53.135,244.385-53.508Zm-47.3,0a1.183,1.183,0,0,0-1.3,1.862c.743.931,2.606.744,2.606.744C198.581-51.087,198.393-53.135,197.09-53.508Zm-12.848,6.145a27.012,27.012,0,0,1-.56-5.586,16.489,16.489,0,0,1,.56-7.263,12.549,12.549,0,0,1,2.047-4.469c-2.047,1.117-3.913,2.235-5.587,6.518-.558,1.86-.743,8.938,2.42,12.475a2.64,2.64,0,0,1,.559-.743C183.871-46.8,184.054-46.99,184.242-47.363ZM180.518-34.7c.188,1.49.932,1.678,1.678,1.306a6.079,6.079,0,0,0,2.232-3.913c.931-5.213.186-8.38,0-8.565A16.086,16.086,0,0,0,180.518-34.7Z" transform="translate(-79.844)"/></g></g></svg>