<svg xmlns="http://www.w3.org/2000/svg" width="240" height="144" viewBox="0 0 240 144"><defs><style>.a{fill:#2c9942;opacity:0;}.b{fill:#c42926;}</style></defs><g transform="translate(-548 -966)"><rect class="a" width="240" height="144" transform="translate(548 966)"/><g transform="translate(627 1089.347)"><path class="b" d="M18.658-11.252l.008-5.631c3.53,0,4.825-.178,5.44,4.151h.373V-17.55l-9.614,0v.663H16.53V-4.489H14.7v.653H24.6V-8.9h-.5c-.494,3.83-1.464,4.414-4.187,4.414H18.658V-10.51h.731c1.221.03,1.917.743,2.166,2.845H22l0-6.226c-.008.012-.443,0-.443,0,0,.031-.087,2.678-2.223,2.639Z" transform="translate(-3.108 -14.092)"/><path class="b" d="M11.621-11.049H6.2v.614H8.054v4.457c-.314,1.132-1.981,1.6-2.479,1.6-3.464,0-3.216-5.069-3.216-6.426,0-1.241-.125-6.429,3.216-6.429,2.354,0,3.593,2.344,4.089,4.449h.376c0-.867.014-4.993.006-4.983.008-.033-1.614,1.164-1.62,1.146.037-.008-.742-1.109-2.851-1.109C1.487-17.725-.012-13.645,0-10.8c.019,2.6,1.22,7.042,5.575,7.042A3.326,3.326,0,0,0,8.426-5.245c.006-.017,1.727,1.359,1.733,1.364v-6.554h1.462Z" transform="translate(0 -14.047)"/><path class="b" d="M71.141-8.884l1.978-5.926,2.108,5.926ZM63.459-11.25H61.235v-5.743H64.08c1.67.253,1.739,2.183,1.739,2.8C65.818-12.711,65.2-11.25,63.459-11.25ZM87.134-9c-.494,3.83-1.464,4.4-4.187,4.4h-.166V-16.991h1.733v-.667h-5.7v.667h1.733V-4.6H79.175l-5.062-13.43h-.745c.017-.008-4.2,12.185-4.214,12.221.009-.036-.318,1.046-1.013,1.18-.64.031-.594-.3-.594-.421V-7.4a4.2,4.2,0,0,0-.688-2.66,3.668,3.668,0,0,0-1.916-.8s3.112-.643,3.112-3.6c0-2.073-1.442-3.1-3.852-3.195h-6.84v.667h1.75V-4.6h-1.75v.659h5.611V-4.6H61.224v-5.959h2.334c4.049.334-.694,6.624,4.612,6.618h3.344V-4.6c-.186,0-1.411.035-1.488-.818a13.028,13.028,0,0,1,.806-2.834h4.553c0-.009,1.416,3.655,1.429,3.655H75.227v.659h12.4V-9Z" transform="translate(-12.133 -13.991)"/><path class="b" d="M44.456-16.892c3.531,0,4.835-.169,5.449,4.159h.373V-17.55H36.26v.657h.366c.494,0,1.669.037,1.736,1.07h0v7.907L31.8-17.55H28.234v.657h.593c.7,0,1.691.032,1.736,1.07v10.13c0,.988-1.48,1.364-2.1,1.364h-.007v.492h4.831v-.492c-.618,0-2.108-.375-2.108-1.364L31.2-14.61c2.6,3.71,7.5,10.78,7.541,10.774h.245V-15.822c.067-1.033,1.242-1.07,1.736-1.07h1.609v12.4H40.493v.653H50.4V-8.9h-.5c-.494,3.83-1.464,4.414-4.188,4.414H44.456V-10.51h.731c1.222.03,1.917.743,2.166,2.845h.45l0-6.226c-.009.012-.443,0-.443,0,0,.031-.087,2.678-2.224,2.639h-.677Z" transform="translate(-5.972 -14.092)"/><path class="b" d="M102.153-16.892v-.668H96.559v.668h1.757l.006,12.386H96.559v.668h5.593v-.668H100.4V-16.892Z" transform="translate(-20.424 -14.09)"/><path class="b" d="M61.8-43.039a1.208,1.208,0,0,1,.936-.784l4.525-1.01-.409-4.036-.013-.087a2.629,2.629,0,0,0-2.55-2.312c-8.088-.653-9.965-1.852-11.93-3.122l-.008-.019-.012.006-.127-.082a8.46,8.46,0,0,0-4.392-1.365,21.443,21.443,0,0,0-5.426.984c-.7.2-1.354.415-1.987.618a22,22,0,0,1-8.4,1.41l-.671-.02-.173.649c-.132.5-1.161,4.562-.168,7.172a2.053,2.053,0,0,0-.884,1.62c.037.893-.174,1.112-.243,1.184-.424.44-1.833.5-3.02.5H26.4l-.255.35a3.344,3.344,0,0,1-3.323.986c-.446-1.354-.457-2.389-.028-3.007a2.513,2.513,0,0,1,2.018-.808h.255a1.955,1.955,0,0,0,1.949-1.959v-7.273a8.054,8.054,0,0,0,.82-1.744,3.683,3.683,0,0,0,3.134-3.6,3.587,3.587,0,0,0-.574-1.94,5.1,5.1,0,0,0,3.043-4.519,4.009,4.009,0,0,0-2.075-3.721,33.812,33.812,0,0,0,1.075-3.677l1.42-5.086a4.47,4.47,0,0,1,4.231-3.282H63.107a5.255,5.255,0,0,1-4.645,2.2H43.324l-.791,1.693H56.1a5.241,5.241,0,0,1-4.843,2.494H41.421l-.79,1.693h8.776a5.238,5.238,0,0,1-4.782,2.4H39.263l-.79,1.693h5.62a1.78,1.78,0,0,1,.193,1.013,2.009,2.009,0,0,1-2.039,1.973,3.236,3.236,0,0,1-1.294-.324l-.745-.316-1.3,1.17.732.311h0a6.23,6.23,0,0,0,2.613.745,3.651,3.651,0,0,0,2.63-1.113c.963.062,2.517.19,4.021.313,1.8.148,3.5.288,4.374.334.439.024.851.044,1.245.063.746.037,1.429.071,2.111.12,3.414,5.543,5.164,6.272,11.776,7.065.476.853.906,1.756,1.315,2.664v10.794l0,.062c.037.5.037.664-.032.754a5.732,5.732,0,0,1-1.6.873l-5.573,2.1A3.093,3.093,0,0,1,61.8-43.039ZM60.6-40.107H49.577L54.3-45.091a3.162,3.162,0,0,0,.856-3.334c-.229-.671-.852-1.957-1.5-3.276,1.874.871,4.716,1.654,10.5,2.12.7.058.881.295,1.019.928l.253,2.5-3.022.674a2.905,2.905,0,0,0-2.182,1.831A4.26,4.26,0,0,0,60.6-40.107Zm-19.873,0a2.988,2.988,0,0,1,.365-2.781,2.19,2.19,0,0,1,1.894-.7l3.221.6.081.014h.448l2.275-2.454.021-.022a2.72,2.72,0,0,0,.365-3.575l-3.042-5.012a10.711,10.711,0,0,1,1.477-.116l.02,0a6.777,6.777,0,0,1,3.175.93c.22.475.529,1.1.871,1.795.639,1.294,1.434,2.9,1.656,3.557a1.453,1.453,0,0,1-.477,1.614l-5.831,6.154ZM39.81-44a4.347,4.347,0,0,0-.823,3.895H28.612a3.781,3.781,0,0,0,2.483-.952,3.157,3.157,0,0,0,.717-2.362c.022-.061.135-.293.643-.523l.894-.407-.536-.825c-.887-1.362-.5-4.339-.157-5.956h.08a24.066,24.066,0,0,0,8.191-1.5c.626-.2,1.272-.409,1.954-.608l.021-.007c.014,0,.716-.227,1.67-.449l3.382,5.573.03.047c.337.481.38.8-.234,1.513l-1.7,1.829-2.778-.516-.025,0A3.889,3.889,0,0,0,39.81-44Zm-18.4-.367c-.721,1.037-.809,2.468-.266,4.262H19.386V-53.791a7.384,7.384,0,0,0,1.932-.563,13.683,13.683,0,0,1-.229,1.7c-.025.147-.052.3-.079.462l-.169.988h1a7.5,7.5,0,0,0,3.479-.679v5.713a.259.259,0,0,1-.253.265h-.255A4.028,4.028,0,0,0,21.405-44.369Zm-3.716,2.778L9.7-43.67,1.713-41.591V-55.878L9.7-57.952l7.987,2.074ZM2.739-40.107,9.7-41.92l6.961,1.812ZM5.524-61.141a2.025,2.025,0,0,1,2.051-.784L8.3-61.8l.228-.7a1,1,0,0,1,.256-.432,1.215,1.215,0,0,1,.893-.271,5.316,5.316,0,0,1,3.338,1.858,9,9,0,0,1,1.011,1.349c.058.1.125.208.185.3.083.132.154.241.169.266a6.477,6.477,0,0,1,.515.885q.526-.738,1.053-1.477c.01-.014-.006-.06-.035-.123a7.256,7.256,0,0,0-.376-.636c-.026-.042-.054-.085-.081-.127l-.006-.01c-.01-.018-.058-.091-.12-.188-.117-.183-.285-.448-.359-.594l2.211-3.534a6.3,6.3,0,0,0,1.245.133h.055c3.117,0,6.341-1.8,6.341-4.807v-.073A15.258,15.258,0,0,0,24.5-72.2a7.182,7.182,0,0,1-.158-1c0-.33.463-.7,1.127-.7h1.009l-.457-2.612A5.421,5.421,0,0,0,28.27-80.88a7.758,7.758,0,0,1,2.8,5.367,8.728,8.728,0,0,1-.269,2.429L30.7-72.7l.018.006A34.009,34.009,0,0,1,29.538-68.9l-.261.68.635.36c1.137.644,1.836,1.115,1.836,2.612a3.639,3.639,0,0,1-3.039,3.313l-2.043.382L28.393-60.4a1.942,1.942,0,0,1,.884,1.61,2,2,0,0,1-2.044,1.956h-.651l-.183.6c-.635,2.066-1.324,3.075-3.538,3.291a12.094,12.094,0,0,0,.173-2.086c0-.2-.018-.763-.026-.943l-.1-1.925-1.354,1.375a4.323,4.323,0,0,1-2.168,1.014v-1.68L9.7-59.7l-3.446.9A2.605,2.605,0,0,1,5.524-61.141Zm10.458-6.22a.244.244,0,0,1,.22-.207l1.458.046c1.779-.062,3.589-.794,3.793-2.645a2.351,2.351,0,0,0-2.146-2.474,4.745,4.745,0,0,0-2.275,1.027,3.106,3.106,0,0,1-1.322.656c-.225,0-.406-.149-.406-.272a.189.189,0,0,1,.011-.063l.932-1.247-.806-.541c-.172-.113-.439-.324-.468-.483-.014-.075.094-.209.128-.248a14.617,14.617,0,0,0,1.1-1.448c.237-.333.376-.516.774-.516a.711.711,0,0,1,.715.7c0,.256.282.459.631.459s.507-.247.723-.459c0,0,.831-.763.391-1.123-.5-.411-2.514.428-1.954-1.419l.139-.264a4.161,4.161,0,0,1,3.166-1,9.565,9.565,0,0,1,1.18.078l.3.038,4.22-2.6a.916.916,0,0,1,.049.152l0,.025a3.663,3.663,0,0,1-1.872,3.537l-.515.294.333,1.9A2.416,2.416,0,0,0,22.649-73.2a7.462,7.462,0,0,0,.189,1.324,13.832,13.832,0,0,1,.285,1.966c0,1.981-2.733,3.291-5.046,3.216h-.059a5.823,5.823,0,0,1-1.929-.4A.287.287,0,0,1,15.982-67.361Zm3.5-13.217a5.252,5.252,0,0,1,1.217-1.06,5.522,5.522,0,0,1,1.448-.654,5.907,5.907,0,0,1,2.731-.064L21.882-80.51a10.747,10.747,0,0,0-1.091-.058,8.834,8.834,0,0,0-1.4.11C19.419-80.5,19.448-80.54,19.479-80.578Zm45.608-.436H76.373a5.257,5.257,0,0,1-4.646,2.2H63.4A7.591,7.591,0,0,0,65.087-81.013Zm-.566,6.382H56.19a7.739,7.739,0,0,0,1.84-2.494H69.364A5.24,5.24,0,0,1,64.521-74.631Zm-6.631,4.1H49.559a7.712,7.712,0,0,0,1.793-2.4H62.672A5.241,5.241,0,0,1,57.89-70.535Zm1.915,6.357a10.4,10.4,0,0,1,6.423,3.53c.348.409.682.843,1.012,1.313-4.44-.582-5.985-1.229-8.468-5C59.1-64.29,59.445-64.239,59.806-64.179ZM77.522-45.907c.162.262.3.509.437.746.165.293.327.578.518.875a4.056,4.056,0,0,1-3.159-2.138A1.929,1.929,0,0,1,77.522-45.907Zm-10.556,5.8,1.732-.655.025-.008c2.458-1.018,2.807-1.654,2.693-3.288v-6.608c1.87,4.75,3.638,8.089,7.264,8.088a7.166,7.166,0,0,0,1.585-.189l1.415-.32-.972-1.073a8.951,8.951,0,0,1-1.27-1.832c-.144-.252-.291-.513-.469-.8a3.62,3.62,0,0,0-4.5-1.111c-.742-1.472-1.489-3.391-2.387-5.761l-.2-.45c-.155-.353-.31-.71-.469-1.066v-.06h-.026a33.558,33.558,0,0,0-1.861-3.683,21.271,21.271,0,0,0-2.006-2.817,12.053,12.053,0,0,0-7.439-4.1,43.28,43.28,0,0,0-5.484-.514c-.391-.018-.8-.039-1.235-.063-.854-.047-2.62-.191-4.327-.332-1.152-.094-2.332-.19-3.26-.26a3.5,3.5,0,0,0,.1-.812,4.676,4.676,0,0,0-.1-1.013H57.89a6.984,6.984,0,0,0,6.728-4.1,6.979,6.979,0,0,0,6.676-4.184h.432A7.018,7.018,0,0,0,78.6-81.51l.546-1.2H38.094a6.138,6.138,0,0,0-5.853,4.482l-.027.095A8.691,8.691,0,0,0,28.6-82.7a9.092,9.092,0,0,0-6.928-1.216,7.179,7.179,0,0,0-1.913.868,7.022,7.022,0,0,0-1.62,1.431,13.287,13.287,0,0,0-1.4,2.249,2.714,2.714,0,0,0-.546.587l-.492.922-.025.053a11.541,11.541,0,0,1-1.86,2.9,1.942,1.942,0,0,0-.508,1.657,2.163,2.163,0,0,0,.568,1.065l-.015.025a1.864,1.864,0,0,0-.25.934,1.99,1.99,0,0,0,2.1,1.9,4.08,4.08,0,0,0,2.26-.875,6.111,6.111,0,0,1,1.337-.745.644.644,0,0,1,.62.619c0,.887-1.144,1.366-1.964,1.425l-1.667.178c-1.2.113-1.769.749-1.769,1.317a1.445,1.445,0,0,0,.465,1.083l.124.127.423.376-1.768,2.847A6.582,6.582,0,0,0,9.728-64.89a2.858,2.858,0,0,0-2.114.734,2.585,2.585,0,0,0-.409.5H7.175A3.7,3.7,0,0,0,4.1-62.066a3.751,3.751,0,0,0,.376,3.721L.017-57.187v21.332H81.866v-4.252Z" transform="translate(-0.004 0)"/><path class="b" d="M18.753-45.876l-5.337-1.386v1.749l5.337,1.386Z" transform="translate(-2.838 -7.807)"/><path class="b" d="M4.413-44.127l5.337-1.386v-1.75L4.413-45.877Z" transform="translate(-0.934 -7.807)"/><path class="b" d="M4.413-39.668l5.337-1.385V-42.8L4.413-41.418Z" transform="translate(-0.934 -8.751)"/><path class="b" d="M18.753-41.418,13.416-42.8v1.75l5.337,1.385Z" transform="translate(-2.838 -8.751)"/><path class="b" d="M18.753-36.957l-5.337-1.387v1.75l5.337,1.386Z" transform="translate(-2.838 -9.694)"/><path class="b" d="M4.413-35.208l5.337-1.386v-1.75L4.413-36.957Z" transform="translate(-0.934 -9.694)"/></g></g></svg>