<svg xmlns="http://www.w3.org/2000/svg" width="240" height="144" viewBox="0 0 240 144"><defs><style>.a{fill:#f4b229;opacity:0;}.b{fill:#6485c1;}</style></defs><g transform="translate(-1075 -966)"><rect class="a" width="240" height="144" transform="translate(1075 966)"/><g transform="translate(1129.312 1109.588)"><g transform="translate(0 -80.729)"><path class="b" d="M75.821-79.969v3.954h6.014v14.8h4.259v-14.8h6.014v-3.954Z" transform="translate(-55.886 80.169)"/><path class="b" d="M309.539-79.969H298.813v3.986h10.435c1.538,0,2.133.7,2.133,2.488v.668h-8.655c-3.294,0-4.928,1.642-4.928,5.363v.886c0,3.824,1.7,5.361,5.114,5.361H315.6V-73.541c0-4.718-1.562-6.428-6.062-6.428m-6.183,14.744c-.645,0-1.369-.321-1.369-1.933s.707-1.892,1.369-1.892h8.026v3.825Z" transform="translate(-219.499 80.169)"/><path class="b" d="M444.037-79.969H433.314v3.986h10.442c1.529,0,2.125.7,2.125,2.488v.668h-8.646c-3.294,0-4.935,1.642-4.935,5.363v.886c0,3.824,1.7,5.361,5.112,5.361H450.1V-73.541c0-4.718-1.562-6.428-6.062-6.428m-6.183,14.744c-.645,0-1.368-.321-1.368-1.933s.708-1.892,1.368-1.892h8.027v3.825Z" transform="translate(-318.636 80.169)"/><path class="b" d="M142.91-79.969v3.954h6.014v14.8h4.269v-14.8h6.014v-3.954Z" transform="translate(-105.335 80.169)"/><path class="b" d="M368.753-79.969v3.954h6.014v14.8h4.258v-14.8h6.014v-3.954Z" transform="translate(-271.798 80.169)"/><path class="b" d="M242.165-67.76v-5.613c0-4.9-1.9-6.563-6.2-6.563H224.557v18.744h11.609c4.557,0,6-2.269,6-6.568m-4.349.089c0,1.787-.6,2.488-2.134,2.488h-6.86V-75.949h6.86c1.53,0,2.134.7,2.134,2.5Z" transform="translate(-165.515 80.144)"/><path class="b" d="M13.921-66.246C13.832-66.415,8.148-77.5,7.447-78.6A3.966,3.966,0,0,0,3.8-80.729c-1.74,0-3.8.765-3.8,4.943v14.018H4.195V-73.46c0-.837-.048-2.085-.056-2.335-.008-.209,0-.4.105-.458.111-.074.233.039.321.192s5.353,10.6,6.48,12.358a3.947,3.947,0,0,0,3.648,2.135c1.74,0,3.793-.773,3.793-4.944V-80.53H14.292v11.692c0,.845.048,2.085.064,2.335,0,.2,0,.4-.1.46-.122.072-.242-.041-.33-.2" transform="translate(0 80.729)"/></g></g></g></svg>