<svg xmlns="http://www.w3.org/2000/svg" width="240" height="144" viewBox="0 0 240 144"><defs><style>.a{fill:#ef402f;opacity:0;}.b{fill:#009c95;}.b,.c{fill-rule:evenodd;}.c{fill:#221e1f;}</style></defs><g transform="translate(-285 -966)"><rect class="a" width="240" height="144" transform="translate(285 966)"/><g transform="translate(338.689 1067.914)"><path class="b" d="M32.245-39.181a9.936,9.936,0,0,0-9.927-9.926,9.98,9.98,0,0,0-9.978,9.926Z" transform="translate(-2.362 0)"/><path class="b" d="M32.245-12.34a9.98,9.98,0,0,1-9.927,9.978A10.024,10.024,0,0,1,12.34-12.34Z" transform="translate(-2.362 -7.038)"/><path class="b" d="M18.881-26.967a10.078,10.078,0,0,0-8.955,9.978A9.935,9.935,0,0,1,0-26.915a9.947,9.947,0,0,1,9.926-9.979A9.952,9.952,0,0,0,18.881-26.967Z" transform="translate(0 -2.338)"/><path class="b" d="M26.072-26.967a10.078,10.078,0,0,1,8.955,9.978,9.936,9.936,0,0,0,9.927-9.926,9.959,9.959,0,0,0-9.978-9.979A9.908,9.908,0,0,1,26.072-26.967Z" transform="translate(-4.991 -2.338)"/><path class="c" d="M107.8-33.587H110c.767,0,2.4-.051,2.4,1.945a2.185,2.185,0,0,1-2.4,2.507h-2.2v.614l6.651,10.337h5.578l-5.833-8.649a5.217,5.217,0,0,0,3.224-5.372c0-4.708-3.838-5.321-5.321-5.321h-9.006v19.342H107.8Z" transform="translate(-19.733 -2.217)"/><path class="c" d="M137.2-23.712c-1.484,1.433-3.019,1.586-5.424,1.586-2.968,0-5.373-2.507-5.373-5.987s2.406-6.346,5.373-6.346a7.733,7.733,0,0,1,5.424,1.791v-4.656a11.036,11.036,0,0,0-5.424-1.279c-5.731,0-10.336,3.479-10.336,10.49,0,6.7,4.6,10.336,10.336,10.336a13.448,13.448,0,0,0,5.475-.972Z" transform="translate(-23.246 -2.011)"/><path class="c" d="M142.45-18.184V-37.526h4.759v8.391l6.243-8.391h5.629l-6.039,8.9,7.164,10.439H154.27l-7.061-10.234v10.234Z" transform="translate(-27.267 -2.217)"/><path class="c" d="M59.992-18.184h4.554V-30.875l5.782,13.253,5.885-13.355v12.793h4.708V-37.526H73.961l-3.633,8.545-3.684-8.545H59.992Z" transform="translate(-11.483 -2.217)"/><path class="c" d="M87.457-37.526H99.072v3.939H92.216v3.531h6.243v3.991H92.216v3.888h6.857v3.992H87.457Z" transform="translate(-16.741 -2.217)"/></g></g></svg>