<svg xmlns="http://www.w3.org/2000/svg" xmlns:xlink="http://www.w3.org/1999/xlink" width="304.2" height="304.187" viewBox="0 0 304.2 304.187"><defs><style>.a{fill:rgba(96,172,237,0.16);}.b{filter:url(#a);}</style><filter id="a" x="0" y="0" width="304.2" height="304.187" filterUnits="userSpaceOnUse"><feOffset dy="3" input="SourceAlpha"/><feGaussianBlur stdDeviation="2.5" result="b"/><feFlood flood-opacity="0.141"/><feComposite operator="in" in2="b"/><feComposite in="SourceGraphic"/></filter></defs><g transform="translate(-947.315 -2389.128)"><g class="b" transform="matrix(1, 0, 0, 1, 947.31, 2389.13)"><path class="a" d="M88.014,288.635a7.984,7.984,0,0,1-4.51-10.347l17.211-43.8a7.979,7.979,0,0,1,14.853,5.837l-17.207,43.8a7.985,7.985,0,0,1-10.348,4.511Zm107.917-6.294-18.8-43.151a7.976,7.976,0,1,1,14.623-6.373l18.807,43.146a7.979,7.979,0,1,1-14.627,6.378ZM2.741,206.431a7.958,7.958,0,0,1,4.117-10.5l43.147-18.806a7.978,7.978,0,0,1,6.374,14.628l-43.147,18.8a7.955,7.955,0,0,1-10.491-4.123Zm275.562-.74-43.8-17.206a7.981,7.981,0,0,1,5.836-14.857l43.8,17.211a7.979,7.979,0,0,1-5.836,14.852ZM48.863,115.554,5.06,98.347A7.975,7.975,0,1,1,10.9,83.5l43.8,17.2a7.979,7.979,0,1,1-5.836,14.853Zm179.83-7.62a7.976,7.976,0,0,1,4.128-10.5l43.147-18.806a7.978,7.978,0,0,1,6.372,14.629L239.2,112.062a7.974,7.974,0,0,1-10.5-4.127ZM97.434,56.364l-18.8-43.151A7.983,7.983,0,0,1,93.27,6.839l18.8,43.147a7.983,7.983,0,0,1-14.637,6.378Zm80.7,2.846a7.971,7.971,0,0,1-4.5-10.347l17.205-43.8A7.981,7.981,0,1,1,205.695,10.9L188.483,54.7a7.972,7.972,0,0,1-10.348,4.511Z" transform="translate(7.5 4.5)"/></g></g></svg>