<svg xmlns="http://www.w3.org/2000/svg" width="190" height="43.078" viewBox="0 0 190 43.078"><defs><style>.a{fill:#0075c9;}.b{fill:#ef402f;}.c{fill:#f4b223;}.d{fill:#2c9942;}</style></defs><g transform="translate(0)"><path class="a" d="M27.68,9.55h3.038V20.656h.437L42.837,9.55h4.4L34.525,21.267,47.848,35.236H43.4L31.172,22.175h-.437V35.236H27.68Z" transform="translate(20.654 7.126)"/><path class="a" d="M40.77,9.55h7.613a15.419,15.419,0,0,1,3.405.349,8.5,8.5,0,0,1,2.864,1.152,5.85,5.85,0,0,1,1.991,2.183,6.793,6.793,0,0,1,.751,3.353,6.74,6.74,0,0,1-.8,3.492,6.146,6.146,0,0,1-2.043,2.183A8.434,8.434,0,0,1,51.806,23.4a13.742,13.742,0,0,1-2.829.314H43.826V35.254H40.77Zm3.056,11.263h5.151a6.286,6.286,0,0,0,3.719-1.03,3.737,3.737,0,0,0,1.432-3.213A3.737,3.737,0,0,0,52.7,13.357a6.286,6.286,0,0,0-3.719-1.03H43.826Z" transform="translate(30.421 7.126)"/><path class="a" d="M53.09,9.55h3.056V35.236H53.09Z" transform="translate(39.614 7.126)"/><path class="a" d="M71.4,14.359a4.383,4.383,0,0,0-2.026-1.746,6.426,6.426,0,0,0-2.654-.576,7.6,7.6,0,0,0-1.991.262,5.745,5.745,0,0,0-1.746.768,3.719,3.719,0,0,0-1.257,1.345,4.33,4.33,0,0,0-.192,3.492,3.108,3.108,0,0,0,.891,1.222,6.81,6.81,0,0,0,1.746,1.013,22.037,22.037,0,0,0,2.584.943c.978.314,1.956.646,2.881,1.013A9.884,9.884,0,0,1,72.1,23.474a6.077,6.077,0,0,1,1.746,2.1,6.862,6.862,0,0,1,.629,3.126,6.985,6.985,0,0,1-.751,3.353,7.072,7.072,0,0,1-2.026,2.34,9.184,9.184,0,0,1-2.881,1.379,12.764,12.764,0,0,1-3.37.454,12.22,12.22,0,0,1-2.252-.209,10.232,10.232,0,0,1-2.166-.611,8.923,8.923,0,0,1-1.938-1.1,6.339,6.339,0,0,1-1.554-1.641l2.549-2.2a5.518,5.518,0,0,0,2.322,2.148,7.247,7.247,0,0,0,5.134.437,5.535,5.535,0,0,0,1.746-.856,4.348,4.348,0,0,0,1.31-1.4,3.493,3.493,0,0,0,.506-1.921,3.894,3.894,0,0,0-.4-1.938,3.492,3.492,0,0,0-1.222-1.292,8.853,8.853,0,0,0-2.113-.978L64.4,23.649a18.912,18.912,0,0,1-2.567-1.013,7.194,7.194,0,0,1-2.008-1.379,5.745,5.745,0,0,1-1.362-1.921,6.81,6.81,0,0,1-.489-2.741,6.653,6.653,0,0,1,2.689-5.535,8.923,8.923,0,0,1,2.794-1.4,11.193,11.193,0,0,1,3.265-.471,11.036,11.036,0,0,1,3.964.681,7.6,7.6,0,0,1,3.213,2.34Z" transform="translate(42.934 6.857)"/><path class="a" d="M82.628,36.183a13.969,13.969,0,0,1-5.4-1.03,12.782,12.782,0,0,1-4.243-2.811A12.625,12.625,0,0,1,70.2,28.081a15.069,15.069,0,0,1,0-10.774,12.625,12.625,0,0,1,2.794-4.278A12.782,12.782,0,0,1,77.233,10.2a14.65,14.65,0,0,1,10.791,0,12.782,12.782,0,0,1,4.243,2.811,12.624,12.624,0,0,1,2.776,4.278,15.069,15.069,0,0,1,0,10.791,12.625,12.625,0,0,1-2.794,4.278,12.782,12.782,0,0,1-4.191,2.794A13.969,13.969,0,0,1,82.628,36.183Zm0-2.846a9.726,9.726,0,0,0,7.334-3.108,10.373,10.373,0,0,0,2.078-3.405,11.821,11.821,0,0,0,0-8.294,10.373,10.373,0,0,0-2.078-3.405,10.167,10.167,0,0,0-14.668,0,10.372,10.372,0,0,0-2.078,3.405,11.821,11.821,0,0,0,0,8.294,10.372,10.372,0,0,0,2.078,3.405,9.726,9.726,0,0,0,7.334,3.091Z" transform="translate(51.634 6.843)"/><path class="a" d="M87.38,9.55h15.942v2.829H90.436v8.434h12v2.829h-12V35.184H87.38Z" transform="translate(65.2 7.126)"/><path class="a" d="M117.368,12.379h-8.4V35.236h-3.143V12.379H97.34V9.55h20.028Z" transform="translate(72.632 7.126)"/><path class="b" d="M2.619,15.31h0a2.637,2.637,0,0,0-1.851.768A2.6,2.6,0,0,0,0,17.929V28.982a2.637,2.637,0,0,0,.681,1.746,2.6,2.6,0,0,0,1.938.856H13.672a2.619,2.619,0,0,0,2.6-2.619h0a2.619,2.619,0,0,0-2.6-2.619H7.421a2.218,2.218,0,0,1-1.746-.838,2.148,2.148,0,0,1-.437-1.327V17.929a2.619,2.619,0,0,0-1.1-2.13,2.707,2.707,0,0,0-1.519-.489Z" transform="translate(0 11.424)"/><path class="c" d="M0,5.524V16.682a2.654,2.654,0,0,0,.751,1.833,2.567,2.567,0,0,0,1.833.751h0A2.654,2.654,0,0,0,5.238,16.63V10.379A2.183,2.183,0,0,1,7.386,8.231h6.3a2.567,2.567,0,0,0,2.584-2.6v-.1a2.48,2.48,0,0,0-.716-1.746,2.514,2.514,0,0,0-1.746-.768H2.532A2.532,2.532,0,0,0,0,5.525Z" transform="translate(0 2.246)"/><path class="d" d="M21.181,26.363H14.929a2.619,2.619,0,0,0-2.619,2.619h0a2.654,2.654,0,0,0,.454,1.467A2.619,2.619,0,0,0,14.929,31.6H25.982A2.619,2.619,0,0,0,28.6,28.982V17.929a2.619,2.619,0,0,0-2.619-2.619h0a2.637,2.637,0,0,0-2.619,2.619v6.251a2.148,2.148,0,0,1-2.183,2.183Z" transform="translate(9.185 11.424)"/><path class="a" d="M29.193,0H16.97a4.627,4.627,0,0,0-4.61,4.61V16.833A4.61,4.61,0,0,0,13.722,20.1a4.523,4.523,0,0,0,3.248,1.345H29.193a4.61,4.61,0,0,0,4.61-4.61V4.61A4.61,4.61,0,0,0,29.193,0Z" transform="translate(9.223)"/></g></svg>