<svg xmlns="http://www.w3.org/2000/svg" xmlns:xlink="http://www.w3.org/1999/xlink" width="324.529" height="313.312" viewBox="0 0 324.529 313.312"><defs><style>.a{fill:rgba(96,172,237,0.16);}.b{filter:url(#a);}</style><filter id="a" x="0" y="0" width="324.529" height="313.312" filterUnits="userSpaceOnUse"><feOffset dy="3" input="SourceAlpha"/><feGaussianBlur stdDeviation="2.5" result="b"/><feFlood flood-opacity="0.141"/><feComposite operator="in" in2="b"/><feComposite in="SourceGraphic"/></filter></defs><g class="b" transform="matrix(1, 0, 0, 1, 0, 0)"><path class="a" d="M-6140.33-1164.688a6.974,6.974,0,0,1-6.969-6.969v-80.218a7.725,7.725,0,0,0-7.714-7.727h-80.029a6.971,6.971,0,0,1-6.958-6.969,6.98,6.98,0,0,1,6.958-6.98h88.858a12.876,12.876,0,0,1,12.86,12.894v89a6.969,6.969,0,0,1-6.955,6.969Zm91.989-92.333a6.732,6.732,0,0,1-6.722-6.733v-80.4a7.724,7.724,0,0,0-7.716-7.739h-79.794a7.247,7.247,0,0,1-7.242-7.245,6.733,6.733,0,0,1,6.721-6.744h89.085a12.875,12.875,0,0,1,12.87,12.882v89.678a6.3,6.3,0,0,1-6.29,6.3Zm108.852-97.116a6.979,6.979,0,0,1-6.957-6.979v-80.207a7.73,7.73,0,0,0-7.726-7.729h-80.019a6.97,6.97,0,0,1-6.958-6.968,6.98,6.98,0,0,1,6.958-6.98h88.859a12.877,12.877,0,0,1,12.86,12.892v88.991a6.982,6.982,0,0,1-6.967,6.979Z" transform="translate(6249.5 1467.5)"/></g></svg>